<?xml version="1.0" encoding="UTF-8"?>
<svg width="600" height="400" viewBox="0 0 600 400" xmlns="http://www.w3.org/2000/svg">
    <!-- Background Elements -->
    <defs>
        <linearGradient id="grad1" x1="0%" y1="0%" x2="100%" y2="100%">
            <stop offset="0%" style="stop-color:#4CAF50;stop-opacity:0.2"/>
            <stop offset="100%" style="stop-color:#2196F3;stop-opacity:0.2"/>
        </linearGradient>
    </defs>
    
    <!-- Background Shapes -->
    <circle cx="100" cy="300" r="80" fill="url(#grad1)"/>
    <circle cx="500" cy="100" r="60" fill="url(#grad1)"/>
    
    <!-- Code Window -->
    <rect x="150" y="50" width="300" height="200" rx="10" fill="#fff" stroke="#ddd"/>
    <rect x="150" y="50" width="300" height="30" rx="10" fill="#f5f5f5" stroke="#ddd"/>
    <circle cx="170" cy="65" r="5" fill="#ff5f57"/>
    <circle cx="190" cy="65" r="5" fill="#ffbd2e"/>
    <circle cx="210" cy="65" r="5" fill="#28c940"/>
    
    <!-- Code Lines -->
    <rect x="170" y="100" width="200" height="10" rx="2" fill="#e3f2fd"/>
    <rect x="170" y="120" width="150" height="10" rx="2" fill="#e8f5e9"/>
    <rect x="170" y="140" width="180" height="10" rx="2" fill="#ede7f6"/>
    <rect x="170" y="160" width="160" height="10" rx="2" fill="#e3f2fd"/>
    <rect x="170" y="180" width="140" height="10" rx="2" fill="#e8f5e9"/>
    
    <!-- Tools Icons -->
    <circle cx="200" cy="300" r="30" fill="#4CAF50"/>
    <circle cx="300" cy="300" r="30" fill="#2196F3"/>
    <circle cx="400" cy="300" r="30" fill="#673AB7"/>
    
    <!-- Connecting Lines -->
    <line x1="230" y1="300" x2="270" y2="300" stroke="#ddd" stroke-width="2"/>
    <line x1="330" y1="300" x2="370" y2="300" stroke="#ddd" stroke-width="2"/>
</svg> 